# xmcd
#
# Track frame offsets:
#	150
#	12581
#	27145
#	40839
#	53570
#	65017
#	79714
#	93483
#	106750
#	127076
#	142110
#	152969
#	165273
#	178326
#	205675
#	217954
#	240866
#
# Disc length: 3386 seconds
#
# Revision: 1
# Processed by: cddbd v1.5.2PL0 Copyright (c) Steve Scherf et al.
# Submitted via: audiograbber 1.83.01
#
DISCID=e00d3811
DTITLE=Various Artist - Best of Blues2
DYEAR=1900
DGENRE=Blues
TTITLE0=Otis Spann - I'm leaving you
TTITLE1=BB King - Rock me Baby
TTITLE2=Albert King - Bad luck blues
TTITLE3=FB Walker - Hypin woman blues
TTITLE4=John Lee Hooker - Boom Boom
TTITLE5=Big Bill Broonzy - Lonesome road blues
TTITLE6=Muddy Waters - I'm ready
TTITLE7=Howlin' Wolf - Just like I treat you
TTITLE8=Big Bill Broonzy - Louise Louise blues
TTITLE9=Lightnin' Hopkins - Mojo hand
TTITLE10=Litle Walter - Just your feel
TTITLE11=T-Bone Walker - Midnight blues
TTITLE12=Willie Mabon - Lonely blues
TTITLE13=Sonny Terry and B. McGhee - Blowin' the fuses
TTITLE14=J Chris - I believe I'll go back home
TTITLE15=Big Joe Turner - In the evening
TTITLE16=Muddy Waters - I feel so good
EXTD=
EXTT0=
EXTT1=
EXTT2=
EXTT3=
EXTT4=
EXTT5=
EXTT6=
EXTT7=
EXTT8=
EXTT9=
EXTT10=
EXTT11=
EXTT12=
EXTT13=
EXTT14=
EXTT15=
EXTT16=
PLAYORDER=
